<?xml version="1.0" encoding="UTF-8"?>
<svg id="Layer_1" data-name="Layer 1" xmlns="http://www.w3.org/2000/svg" viewBox="0 0 528.05 70.87">
  <polygon points="20 31.85 32.35 55.82 51.83 55.82 36.04 26.28 62.53 0 44.27 0 21.17 22.73 23.9 0 6.65 0 0 55.82 17.1 55.82 20 31.85"/>
  <path d="M69.07,55.82h23.24c8.13,0,12.17-3.16,13.08-10.26l3.01-24.59c.43-3.51-.03-5.97-1.4-7.51-1.48-1.68-4.21-2.66-8.56-2.66h-23.35c-5.83,0-12.14,.99-13.28,10.36l-3.01,24.59c-.46,3.51,0,6,1.42,7.62,1.55,1.77,4.28,2.45,8.86,2.45Zm9.64-31.86c.13-1.54,.81-6.14,6.65-6.14h6.21s-.57,5.49-.91,7.71l-1.92,15.52c-.31,2.25-.95,6.58-6.9,6.58h-6.29l3.17-23.68Z"/>
  <path d="M125,55.82h23.66c8.06,0,11.87-3.04,12.86-10.15l.32-2.5h-17.16c-1.04,3.84-4.59,4.47-6.61,4.47-1.88,0-6.16,0-6.16,0l1.21-10.39h29.43l1.99-16.37c.41-3.38-.07-5.79-1.47-7.37-1.57-1.77-4.4-2.7-8.9-2.7h-22.51c-8.96,0-12.8,3.05-13.7,10.36l-3.11,24.6c-.43,3.45,.05,5.91,1.47,7.51,1.56,1.77,4.24,2.55,8.7,2.55Zm9.75-31.86c.45-3.72,3.06-6.14,6.65-6.14,1.84,0,6.32,0,6.32,0l-1.4,11.64-12.3,.12,.74-5.62Z"/>
  <path d="M375.87,55.82h23.66c8.06,0,11.87-3.04,12.86-10.15l.32-2.5h-17.16c-1.04,3.84-4.59,4.47-6.61,4.47-1.88,0-6.16,0-6.16,0l1.21-10.39h29.43l1.99-16.37c.41-3.38-.07-5.79-1.47-7.37-1.57-1.77-4.4-2.7-8.9-2.7h-22.51c-8.96,0-12.8,3.05-13.7,10.36l-3.11,24.6c-.43,3.45,.05,5.91,1.47,7.51,1.56,1.77,4.24,2.55,8.7,2.55Zm9.75-31.86c.45-3.72,3.06-6.14,6.65-6.14,1.84,0,6.32,0,6.32,0l-1.4,11.64-12.3,.12,.74-5.62Z"/>
  <path d="M190.67,26.16s3.9-3.21,6.48-5.08c2.59-1.87,6.67-2.41,6.67-2.41,0,0-.75,5.72-.88,7.06l-3.65,30.09h17.21l4.17-34.84c.45-3.53-.02-6.03-1.44-7.63-1.47-1.67-4.04-2.54-8.11-2.54h-3.96c-5.31,0-9.11,2.66-9.11,2.66l-6.45,5.12,.94-7.78h-17.2l-5.53,45.02h17.2l3.65-29.66Z"/>
  <polygon points="225.84 55.82 243.04 55.82 248.41 10.79 231.28 10.79 225.84 55.82"/>
  <path d="M268.69,10.79c-7.6,0-11.34,3.16-12.14,10.24l-3.01,24.19c-.42,3.44,.06,5.89,1.47,7.49,1.47,1.67,4.08,3.1,7.97,3.1h6.44c8.81,0,13.13-8.18,13.13-8.18l-1.94,14.9h-28.98l-.85,8.33h33.37c6.36,0,13-1.16,14.01-9.73l6.02-50.34h-35.49Zm16.61,14.45l-1.87,15.09s-3.39,7.3-11.14,7.3c-1.83,0-1.91,0-1.91,0l2.94-23.67c.37-3.17,2.27-6.12,6.69-6.12,1.81-.03,6.1,0,6.1,0,0,0-.64,6.07-.79,7.41Z"/>
  <path d="M436.73,10.79c-7.6,0-11.34,3.16-12.14,10.24l-3.01,24.19c-.42,3.44,.06,5.89,1.47,7.49,1.47,1.67,4.08,3.1,7.97,3.1h6.44c8.81,0,13.13-8.18,13.13-8.18l-1.94,14.9h-28.98l-.85,8.33h33.37c6.36,0,13-1.16,14.01-9.73l6.02-50.34h-35.49Zm16.61,14.45l-1.87,15.09s-3.39,7.3-11.14,7.3c-1.83,0-1.91,0-1.91,0l2.94-23.67c.37-3.17,2.27-6.12,6.69-6.12,1.81-.03,6.1,0,6.1,0,0,0-.64,6.07-.79,7.41Z"/>
  <path d="M492.56,10.79c-7.6,0-11.34,3.16-12.14,10.24l-3.01,24.19c-.42,3.44,.06,5.89,1.47,7.49,1.47,1.67,4.08,3.1,7.97,3.1h6.44c8.81,0,13.13-8.18,13.13-8.18l-1.94,14.9h-28.98l-.85,8.33h33.37c6.36,0,13-1.16,14.01-9.73l6.02-50.34h-35.49Zm16.61,14.45l-1.87,15.09s-3.39,7.3-11.14,7.3c-1.83,0-1.91,0-1.91,0l2.94-23.67c.37-3.17,2.27-6.12,6.69-6.12,1.81-.03,6.1,0,6.1,0,0,0-.64,6.07-.79,7.41Z"/>
  <path d="M320.35,55.82h22.94c8.24,0,12.46-3.5,13.28-10.56l.72-6.02c.42-3.2-.01-5.5-1.32-7.05-2.16-2.55-6.51-2.91-10.34-3.04h-16.86s.56-5.08,.56-5.08c.6-4.61,3.98-6.25,6.96-6.25,.92,0,5.76,0,5.76,0l-.52,6.14h17.28l.47-3.21c.4-3.44-.12-5.91-1.59-7.53-1.52-1.68-4.12-2.48-7.95-2.42h-24.82c-7.5,0-11.25,3.16-12.14,10.25l-.83,6.13c-.46,3.81,.02,6.47,1.46,8.11,2.15,2.46,6.44,2.52,10.59,2.57h16.31s-.33,2.58-.33,2.58c-.14,1.72-1.1,7.19-7.58,7.19-1.75,0-5.83,0-5.83,0l.53-4.47h-17.49l-.24,2.36c-.46,3.47,0,5.93,1.41,7.53,2.06,2.35,6.03,2.76,9.59,2.76Z"/>
</svg>